<svg width="360" height="360" viewBox="0 0 360 360" fill="none" xmlns="http://www.w3.org/2000/svg">
<rect width="360" height="360" rx="180" fill="white"/>
<path d="M130.648 122.838L124.567 144.73L130.648 155.676L150.108 176.351L195.108 175.135L252.27 115.541L251.054 103.378H167.135L163.486 107.027L130.648 122.838Z" fill="#FC5C01"/>
<path d="M224.297 182.432H167.135L105.108 246.892L107.541 261.486L219.432 262.703L253.487 229.865V212.838L224.297 182.432Z" fill="#83C501"/>
<path fill-rule="evenodd" clip-rule="evenodd" d="M278.364 90H163.819V106.364H278.364V90ZM262 122.727V106.364H245.636V122.727L229.273 122.727V139.091H245.636V122.727L262 122.727ZM163.819 155.454H180.181V139.091H196.545V155.455H180.182V171.818H196.545V155.454H212.909V171.818L229.273 171.818V188.182H147.455V171.818L163.819 171.818V155.454ZM131.091 220.909H114.727V237.273H131.091V220.909ZM98.3638 237.273H114.727V253.636H229.273V237.273H245.636V253.636H229.273V270H98.3636H96.3186H82V253.636H96.3186H98.3636H98.3638V237.273ZM147.455 204.545H131.091V220.909H147.455V204.545ZM196.545 122.727H212.909V139.091H196.545V122.727ZM163.818 188.182H147.455V204.546H163.818V188.182ZM114.727 122.727H131.091V155.455H114.727V122.727ZM147.455 155.454H131.091V171.818H147.455V155.454ZM131.091 106.364H163.818V122.727H131.091V106.364ZM180.181 188.182H196.545V204.546H180.182V220.909H163.819V204.545H180.181V188.182ZM229.273 139.091H212.909V155.455H229.273V139.091ZM147.455 220.909H163.818V237.273H147.455V220.909ZM245.636 188.182H229.273V204.546L245.636 204.545V237.273H262V204.545L245.636 204.546V188.182Z" fill="black"/>
</svg>
