<svg width="24" height="24" viewBox="0 0 24 24" fill="none" xmlns="http://www.w3.org/2000/svg">
  <path
    d="M7.75738 6.69672C7.46449 6.40383 6.98961 6.40383 6.69672 6.69672C6.40383 6.98961 6.40383 7.46449 6.69672 7.75738L10.9394 12.0001L6.69678 16.2427C6.40388 16.5356 6.40388 17.0104 6.69678 17.3033C6.98967 17.5962 7.46454 17.5962 7.75744 17.3033L12 13.0607L16.2427 17.3033C16.5356 17.5962 17.0104 17.5962 17.3033 17.3033C17.5962 17.0104 17.5962 16.5356 17.3033 16.2427L13.0607 12.0001L17.3034 7.75738C17.5963 7.46449 17.5963 6.98962 17.3034 6.69672C17.0105 6.40383 16.5356 6.40383 16.2427 6.69672L12 10.9394L7.75738 6.69672Z"
    fill="#FCFCFD" />
</svg>